HIERARCHY
ROOT Hips
{
  OFFSET 0.000 72.666 0.000
  CHANNELS 6 Xposition Yposition Zposition Zrotation Xrotation Yrotation
  JOINT LeftUpLeg
  {
    OFFSET 4.159 0.540 1.867
    CHANNELS 6 Xposition Yposition Zposition Zrotation Xrotation Yrotation
    JOINT LeftLeg
    {
      OFFSET 0.000 -37.053 0.000
      CHANNELS 6 Xposition Yposition Zposition Zrotation Xrotation Yrotation
      JOINT LeftFoot
      {
        OFFSET 0.000 -36.153 0.000
        CHANNELS 6 Xposition Yposition Zposition Zrotation Xrotation Yrotation
        End Site
        {
          OFFSET 0.000 0.000 10.741
        }
      }
    }
  }
  JOINT RightUpLeg
  {
    OFFSET -4.159 0.540 1.867
    CHANNELS 6 Xposition Yposition Zposition Zrotation Xrotation Yrotation
    JOINT RightLeg
    {
      OFFSET 0.000 -37.053 0.000
      CHANNELS 6 Xposition Yposition Zposition Zrotation Xrotation Yrotation
      JOINT RightFoot
      {
        OFFSET 0.000 -36.153 0.000
        CHANNELS 6 Xposition Yposition Zposition Zrotation Xrotation Yrotation
        End Site
        {
          OFFSET 0.000 0.000 10.741
        }
      }
    }
  }
  JOINT Spine
  {
    OFFSET 0.000 34.300 0.000
    CHANNELS 6 Xposition Yposition Zposition Zrotation Xrotation Yrotation
    JOINT Spine1
    {
      OFFSET 0.000 25.000 0.000
      CHANNELS 6 Xposition Yposition Zposition Zrotation Xrotation Yrotation
      JOINT LeftShoulder
      {
        OFFSET 1.800 -0.600 0.200
        CHANNELS 6 Xposition Yposition Zposition Zrotation Xrotation Yrotation
        JOINT LeftArm
        {
          OFFSET 12.794 0.000 0.000
          CHANNELS 6 Xposition Yposition Zposition Zrotation Xrotation Yrotation
          JOINT LeftForeArm
          {
            OFFSET 24.887 0.000 0.000
            CHANNELS 6 Xposition Yposition Zposition Zrotation Xrotation Yrotation
            JOINT LeftHand
            {
              OFFSET 22.516 0.000 0.000
              CHANNELS 6 Xposition Yposition Zposition Zrotation Xrotation Yrotation
              JOINT LeftHandThumb1
              {
                OFFSET 4.877 -1.044 3.608
                CHANNELS 6 Xposition Yposition Zposition Zrotation Xrotation Yrotation
                JOINT LeftHandThumb2
                {
                  OFFSET 2.665 -0.000 -0.000
                  CHANNELS 6 Xposition Yposition Zposition Zrotation Xrotation Yrotation
                  JOINT LeftHandThumb3
                  {
                    OFFSET 2.543 0.000 0.000
                    CHANNELS 6 Xposition Yposition Zposition Zrotation Xrotation Yrotation
                    End Site
                    {
                      OFFSET 2.667 0.000 -0.000
                    }
                  }
                }
              }
              JOINT LeftHandIndex1
              {
                OFFSET 9.232 -0.301 2.144
                CHANNELS 6 Xposition Yposition Zposition Zrotation Xrotation Yrotation
                JOINT LeftHandIndex2
                {
                  OFFSET 4.225 -0.000 0.000
                  CHANNELS 6 Xposition Yposition Zposition Zrotation Xrotation Yrotation
                  JOINT LeftHandIndex3
                  {
                    OFFSET 2.654 -0.000 0.000
                    CHANNELS 6 Xposition Yposition Zposition Zrotation Xrotation Yrotation
                    End Site
                    {
                      OFFSET 1.958 0.000 -0.000
                    }
                  }
                }
              }
              JOINT LeftHandMiddle1
              {
                OFFSET 8.920 -0.000 -0.000
                CHANNELS 6 Xposition Yposition Zposition Zrotation Xrotation Yrotation
                JOINT LeftHandMiddle2
                {
                  OFFSET 4.863 -0.000 0.000
                  CHANNELS 6 Xposition Yposition Zposition Zrotation Xrotation Yrotation
                  JOINT LeftHandMiddle3
                  {
                    OFFSET 2.765 0.000 0.000
                    CHANNELS 6 Xposition Yposition Zposition Zrotation Xrotation Yrotation
                    End Site
                    {
                      OFFSET 2.006 0.000 -0.000
                    }
                  }
                }
              }
              JOINT LeftHandRing1
              {
                OFFSET 8.689 -0.126 -2.087
                CHANNELS 6 Xposition Yposition Zposition Zrotation Xrotation Yrotation
                JOINT LeftHandRing2
                {
                  OFFSET 4.538 -0.000 0.000
                  CHANNELS 6 Xposition Yposition Zposition Zrotation Xrotation Yrotation
                  JOINT LeftHandRing3
                  {
                    OFFSET 2.305 0.000 -0.000
                    CHANNELS 6 Xposition Yposition Zposition Zrotation Xrotation Yrotation
                    End Site
                    {
                      OFFSET 1.923 0.000 -0.000
                    }
                  }
                }
              }
              JOINT LeftHandPinky1
              {
                OFFSET 8.391 -0.817 -3.758
                CHANNELS 6 Xposition Yposition Zposition Zrotation Xrotation Yrotation
                JOINT LeftHandPinky2
                {
                  OFFSET 3.044 -0.000 0.000
                  CHANNELS 6 Xposition Yposition Zposition Zrotation Xrotation Yrotation
                  JOINT LeftHandPinky3
                  {
                    OFFSET 1.975 0.000 0.000
                    CHANNELS 6 Xposition Yposition Zposition Zrotation Xrotation Yrotation
                    End Site
                    {
                      OFFSET 1.667 -0.000 -0.000
                    }
                  }
                }
              }
            }
          }
        }
      }
      JOINT RightShoulder
      {
        OFFSET -1.800 -0.600 0.200
        CHANNELS 6 Xposition Yposition Zposition Zrotation Xrotation Yrotation
        JOINT RightArm
        {
          OFFSET -12.794 0.000 0.000
          CHANNELS 6 Xposition Yposition Zposition Zrotation Xrotation Yrotation
          JOINT RightForeArm
          {
            OFFSET -24.887 0.000 0.000
            CHANNELS 6 Xposition Yposition Zposition Zrotation Xrotation Yrotation
            JOINT RightHand
            {
              OFFSET -22.516 0.000 0.000
              CHANNELS 6 Xposition Yposition Zposition Zrotation Xrotation Yrotation
              JOINT RightHandThumb1
              {
                OFFSET -4.877 -1.044 3.608
                CHANNELS 6 Xposition Yposition Zposition Zrotation Xrotation Yrotation
                JOINT RightHandThumb2
                {
                  OFFSET -2.665 0.000 0.000
                  CHANNELS 6 Xposition Yposition Zposition Zrotation Xrotation Yrotation
                  JOINT RightHandThumb3
                  {
                    OFFSET -2.543 -0.000 0.000
                    CHANNELS 6 Xposition Yposition Zposition Zrotation Xrotation Yrotation
                    End Site
                    {
                      OFFSET -2.667 -0.000 0.000
                    }
                  }
                }
              }
              JOINT RightHandIndex1
              {
                OFFSET -9.232 -0.301 2.144
                CHANNELS 6 Xposition Yposition Zposition Zrotation Xrotation Yrotation
                JOINT RightHandIndex2
                {
                  OFFSET -4.225 -0.000 -0.000
                  CHANNELS 6 Xposition Yposition Zposition Zrotation Xrotation Yrotation
                  JOINT RightHandIndex3
                  {
                    OFFSET -2.654 0.000 0.000
                    CHANNELS 6 Xposition Yposition Zposition Zrotation Xrotation Yrotation
                    End Site
                    {
                      OFFSET -1.958 0.000 0.000
                    }
                  }
                }
              }
              JOINT RightHandMiddle1
              {
                OFFSET -8.920 0.000 -0.000
                CHANNELS 6 Xposition Yposition Zposition Zrotation Xrotation Yrotation
                JOINT RightHandMiddle2
                {
                  OFFSET -4.863 -0.000 0.000
                  CHANNELS 6 Xposition Yposition Zposition Zrotation Xrotation Yrotation
                  JOINT RightHandMiddle3
                  {
                    OFFSET -2.765 0.000 0.000
                    CHANNELS 6 Xposition Yposition Zposition Zrotation Xrotation Yrotation
                    End Site
                    {
                      OFFSET -2.006 0.000 0.000
                    }
                  }
                }
              }
              JOINT RightHandRing1
              {
                OFFSET -8.689 -0.126 -2.087
                CHANNELS 6 Xposition Yposition Zposition Zrotation Xrotation Yrotation
                JOINT RightHandRing2
                {
                  OFFSET -4.538 -0.000 0.000
                  CHANNELS 6 Xposition Yposition Zposition Zrotation Xrotation Yrotation
                  JOINT RightHandRing3
                  {
                    OFFSET -2.305 -0.000 0.000
                    CHANNELS 6 Xposition Yposition Zposition Zrotation Xrotation Yrotation
                    End Site
                    {
                      OFFSET -1.923 -0.000 0.000
                    }
                  }
                }
              }
              JOINT RightHandPinky1
              {
                OFFSET -8.391 -0.817 -3.758
                CHANNELS 6 Xposition Yposition Zposition Zrotation Xrotation Yrotation
                JOINT RightHandPinky2
                {
                  OFFSET -3.044 0.000 -0.000
                  CHANNELS 6 Xposition Yposition Zposition Zrotation Xrotation Yrotation
                  JOINT RightHandPinky3
                  {
                    OFFSET -1.975 -0.000 0.000
                    CHANNELS 6 Xposition Yposition Zposition Zrotation Xrotation Yrotation
                    End Site
                    {
                      OFFSET -1.667 0.000 0.000
                    }
                  }
                }
              }
            }
          }
        }
      }
      JOINT Neck
      {
        OFFSET 0.000 0.800 0.000
        CHANNELS 6 Xposition Yposition Zposition Zrotation Xrotation Yrotation
        JOINT Head
        {
          OFFSET 0.000 6.696 0.000
          CHANNELS 6 Xposition Yposition Zposition Zrotation Xrotation Yrotation
          End Site
          {
            OFFSET 0.000 12.270 0.000
          }
        }
      }
    }
  }
}
MOTION
Frames:	4
Frame Time:	0.033333
-78.57282 78.46552 -253.10464 -2.77248 -0.84767 -49.41428 7.04933 1.12372 1.34108 2.51846 8.06583 -16.82780 -0.10541 -34.88317 0.08325 -14.60376 4.93098 14.62582 0.15376 -37.13722 0.10052 -0.90475 -1.92516 13.82743 -0.30669 0.15779 1.44682 -2.04663 -12.61265 -15.54276 0.03723 -38.11298 0.00982 -2.53009 8.05231 25.44200 0.12162 -33.74652 0.50720 -12.82534 26.16449 25.86654 0.01269 31.43885 -0.07232 -1.68738 0.92086 -5.47786 0.00062 23.09230 0.02899 -2.30321 0.85636 -5.55092 1.43889 -0.44937 -0.43557 -16.66347 -4.15963 13.71015 13.89455 0.00323 -0.01294 -51.10678 5.43306 -5.40895 25.60884 -0.01204 -0.06383 -14.83701 4.90073 -40.57227 20.78589 0.00242 0.23290 -6.71033 -16.17159 -0.71765 4.87698 -1.04399 3.60802 -41.37835 -8.30319 -7.74608 2.66498 -0.00002 -0.00003 0.00000 0.00000 5.05966 2.54300 0.00002 0.00002 -0.00000 0.00000 59.46304 9.23198 -0.30098 2.14399 -79.28406 -0.00000 0.00000 4.22502 -0.00002 0.00002 -89.22439 0.00000 -0.00000 2.65402 -0.00002 0.00001 -69.52269 0.05589 -0.02087 8.91998 -0.00002 -0.00001 -79.28406 -0.00000 0.00000 4.86301 -0.00002 0.00001 -89.22439 0.00000 -0.00000 2.76501 0.00000 0.00001 -69.52269 0.05589 -0.02087 8.68899 -0.12600 -2.08700 -79.28406 -0.00000 0.00000 4.53798 -0.00002 0.00001 -89.22439 0.00000 -0.00000 2.30500 0.00000 -0.00001 -69.52269 0.05589 -0.02087 8.39098 -0.81701 -3.75800 -79.28406 -0.00000 0.00000 3.04401 -0.00002 0.00001 -89.22439 0.00000 -0.00000 1.97502 0.00000 0.00000 -69.52269 0.05589 -0.02087 -1.56783 -0.56523 -0.40712 18.90627 -4.34122 -12.44784 -15.42342 0.00934 -0.16729 94.42031 -8.93425 -30.43029 -25.51545 -0.12406 -0.04481 -19.37614 -25.48271 75.12653 -24.48837 0.05534 -0.02580 24.08824 8.32380 -25.71484 -4.87701 -1.04401 3.60799 24.66570 4.20854 9.07947 -2.66500 0.00002 0.00000 -0.00000 0.00000 -10.00000 -2.54300 -0.00001 0.00000 0.00000 0.00000 -15.00000 -9.23201 -0.30102 2.14398 20.00000 -0.00001 -0.00000 -4.22500 -0.00001 -0.00005 25.00000 0.00000 0.00000 -2.65402 0.00000 0.00000 29.90550 2.49762 4.33287 -8.92001 0.00000 -0.00002 20.00000 -0.00001 -0.00000 -4.86300 -0.00004 0.00000 25.00000 0.00000 0.00000 -2.76499 0.00002 0.00000 29.90550 2.49762 4.33287 -8.68901 -0.12600 -2.08704 20.00000 -0.00001 -0.00000 -4.53801 -0.00002 0.00000 25.00000 0.00000 0.00000 -2.30500 -0.00001 0.00002 29.90550 2.49762 4.33287 -8.39100 -0.81702 -3.75800 20.00000 -0.00001 -0.00000 -3.04401 0.00000 -0.00002 25.00000 0.00000 0.00000 -1.97501 -0.00001 0.00000 29.90550 2.49762 4.33287 0.00007 0.75722 0.00000 -0.00001 -0.00001 0.00001 0.00927 6.83140 -0.05569 30.88041 33.44310 8.59819 
-80.25536 78.43610 -251.95747 -2.56034 -1.18652 -49.09016 7.03561 1.04138 1.30950 3.43973 7.34148 -16.15772 0.05527 -35.78127 0.16522 -17.83824 8.50000 13.95167 0.12988 -36.27105 0.13898 0.28401 -5.35903 13.59474 -0.29288 0.18208 1.44106 -1.02690 -11.61289 -14.93099 0.00565 -37.83485 0.01429 -4.06824 7.45470 26.33634 0.05921 -33.79958 0.36102 -12.32922 25.94035 25.51077 0.01345 31.46167 -0.08381 -1.72148 0.88798 -5.37265 0.00051 23.12033 0.02479 -2.31331 0.83919 -5.43156 1.44659 -0.45586 -0.44164 -16.64400 -4.34121 14.25816 14.02195 0.00143 -0.00789 -51.03193 5.56071 -4.53840 25.60910 -0.01492 -0.08226 -14.93529 5.46284 -38.79390 20.96809 0.00251 0.13543 -9.66146 -9.40900 5.05034 4.87698 -1.04399 3.60802 -41.45462 -8.36262 -7.73942 2.66498 -0.00002 -0.00003 0.00000 0.00000 5.03664 2.54300 0.00002 0.00002 -0.00000 0.00000 59.67025 9.23198 -0.30098 2.14399 -79.56033 -0.00000 0.00000 4.22502 -0.00002 0.00002 -89.52370 0.00000 -0.00000 2.65402 -0.00002 0.00001 -69.70689 0.03436 -0.01271 8.91998 -0.00002 -0.00001 -79.56033 -0.00000 0.00000 4.86301 -0.00002 0.00001 -89.52370 0.00000 -0.00000 2.76501 0.00000 0.00001 -69.70689 0.03436 -0.01271 8.68899 -0.12600 -2.08700 -79.56033 -0.00000 0.00000 4.53798 -0.00002 0.00001 -89.52370 0.00000 -0.00000 2.30500 0.00000 -0.00001 -69.70689 0.03436 -0.01271 8.39098 -0.81701 -3.75800 -79.56033 -0.00000 0.00000 3.04401 -0.00002 0.00001 -89.52370 0.00000 -0.00000 1.97502 0.00000 0.00000 -69.70689 0.03436 -0.01271 -1.57241 -0.55487 -0.42308 18.43773 -4.41817 -13.01402 -15.46326 0.00877 -0.16300 94.46115 -9.25375 -30.70699 -25.59199 -0.09766 -0.01573 -19.30860 -25.33574 75.64036 -24.49875 0.03913 -0.01707 24.37492 8.72395 -25.65624 -4.87701 -1.04401 3.60799 24.66570 4.20854 9.07947 -2.66500 0.00002 0.00000 -0.00000 0.00000 -10.00000 -2.54300 -0.00001 0.00000 0.00000 0.00000 -15.00000 -9.23201 -0.30102 2.14398 20.00000 -0.00001 -0.00000 -4.22500 -0.00001 -0.00005 25.00000 0.00000 0.00000 -2.65402 0.00000 0.00000 29.90550 2.49762 4.33287 -8.92001 0.00000 -0.00002 20.00000 -0.00001 -0.00000 -4.86300 -0.00004 0.00000 25.00000 0.00000 0.00000 -2.76499 0.00002 0.00000 29.90550 2.49762 4.33287 -8.68901 -0.12600 -2.08704 20.00000 -0.00001 -0.00000 -4.53801 -0.00002 0.00000 25.00000 0.00000 0.00000 -2.30500 -0.00001 0.00002 29.90550 2.49762 4.33287 -8.39100 -0.81702 -3.75800 20.00000 -0.00001 -0.00000 -3.04401 0.00000 -0.00002 25.00000 0.00000 0.00000 -1.97501 -0.00001 0.00000 29.90550 2.49762 4.33287 0.00007 0.75802 0.00000 -0.00001 -0.00001 0.00001 0.00968 6.83768 -0.05714 30.06504 33.85073 6.66644 
-81.73067 78.60606 -250.86943 -2.28230 -1.49884 -48.45058 7.03481 0.99496 1.30828 4.04337 6.59314 -16.09575 0.18324 -37.17558 0.25372 -20.52601 11.85543 13.66761 0.10851 -35.37830 0.16930 -2.29727 5.84474 14.00714 -0.30763 0.16065 1.45781 -0.55670 -11.07484 -14.86164 0.00043 -37.68330 0.02220 -5.21213 7.99254 27.10675 0.00972 -33.85156 0.24071 -11.93913 26.29696 24.70264 0.01428 31.41211 -0.08255 -1.72649 0.90543 -5.47347 0.00046 23.09129 0.02235 -2.30895 0.85330 -5.52595 1.45267 -0.46940 -0.44986 -16.91313 -4.53939 14.59405 14.13463 -0.00029 -0.00365 -50.64749 5.38344 -3.55845 25.62160 -0.01739 -0.09332 -15.06044 6.05115 -37.06972 21.05062 -0.00155 0.07836 -8.54471 -6.85880 10.99119 4.87698 -1.04399 3.60802 -41.50119 -8.39894 -7.73535 2.66498 -0.00002 -0.00003 0.00000 0.00000 5.02257 2.54300 0.00002 0.00002 -0.00000 0.00000 59.79684 9.23198 -0.30098 2.14399 -79.72911 -0.00000 0.00000 4.22502 -0.00002 0.00002 -89.70654 0.00000 -0.00000 2.65402 -0.00002 0.00001 -69.81940 0.02119 -0.00779 8.91998 -0.00002 -0.00001 -79.72911 -0.00000 0.00000 4.86301 -0.00002 0.00001 -89.70654 0.00000 -0.00000 2.76501 0.00000 0.00001 -69.81940 0.02119 -0.00779 8.68899 -0.12600 -2.08700 -79.72911 -0.00000 0.00000 4.53798 -0.00002 0.00001 -89.70654 0.00000 -0.00000 2.30500 0.00000 -0.00001 -69.81940 0.02119 -0.00779 8.39098 -0.81701 -3.75800 -79.72911 -0.00000 0.00000 3.04401 -0.00002 0.00001 -89.70654 0.00000 -0.00000 1.97502 0.00000 0.00000 -69.81940 0.02119 -0.00779 -1.57853 -0.54665 -0.43200 18.04597 -4.43937 -13.37058 -15.50896 0.00820 -0.15763 94.42758 -9.60561 -30.73776 -25.64968 -0.07787 0.00357 -19.28457 -25.13841 76.02680 -24.50425 0.02788 -0.01156 24.58920 8.99668 -25.59623 -4.87701 -1.04401 3.60799 24.66570 4.20854 9.07947 -2.66500 0.00002 0.00000 -0.00000 0.00000 -10.00000 -2.54300 -0.00001 0.00000 0.00000 0.00000 -15.00000 -9.23201 -0.30102 2.14398 20.00000 -0.00001 -0.00000 -4.22500 -0.00001 -0.00005 25.00000 0.00000 0.00000 -2.65402 0.00000 0.00000 29.90550 2.49762 4.33287 -8.92001 0.00000 -0.00002 20.00000 -0.00001 -0.00000 -4.86300 -0.00004 0.00000 25.00000 0.00000 0.00000 -2.76499 0.00002 0.00000 29.90550 2.49762 4.33287 -8.68901 -0.12600 -2.08704 20.00000 -0.00001 -0.00000 -4.53801 -0.00002 0.00000 25.00000 0.00000 0.00000 -2.30500 -0.00001 0.00002 29.90550 2.49762 4.33287 -8.39100 -0.81702 -3.75800 20.00000 -0.00001 -0.00000 -3.04401 0.00000 -0.00002 25.00000 0.00000 0.00000 -1.97501 -0.00001 0.00000 29.90550 2.49762 4.33287 0.00007 0.75801 0.00000 -0.00001 -0.00001 0.00001 0.01009 6.82535 -0.04661 29.30637 34.37481 5.76382 
-83.22863 79.05069 -249.61099 -2.10499 -2.00646 -47.79823 7.18995 0.93999 1.40376 6.38703 4.15741 -14.78668 0.09003 -36.05574 0.07332 -25.16163 15.72291 12.46520 -0.02466 -36.95268 -0.06270 -4.44248 16.16631 14.07158 -0.47563 0.14619 1.50450 0.39001 -9.79340 -14.44593 0.07893 -39.10143 -0.07057 -7.95312 8.06172 27.76792 -0.00415 -32.77488 0.25738 -10.29604 25.15960 22.93526 0.01513 31.20209 -0.07877 -1.76857 0.96451 -5.55233 0.00046 22.96277 0.01744 -2.32668 0.89378 -5.60500 1.46050 -0.47925 -0.45972 -17.01813 -4.72806 15.05225 14.26720 -0.00129 -0.00447 -50.47446 5.56098 -2.38107 25.62699 -0.02020 -0.09539 -14.41024 6.44024 -34.43013 21.71121 0.04759 -0.09568 -7.27682 -3.94575 10.98777 4.87698 -1.04399 3.60802 -41.52992 -8.42136 -7.73272 2.66498 -0.00002 -0.00003 0.00000 0.00000 5.01390 2.54300 0.00002 0.00002 -0.00000 0.00000 59.87494 9.23198 -0.30098 2.14399 -79.83326 -0.00000 0.00000 4.22502 -0.00002 0.00002 -89.81937 0.00000 -0.00000 2.65402 -0.00002 0.00001 -69.88884 0.01305 -0.00465 8.91998 -0.00002 -0.00001 -79.83326 -0.00000 0.00000 4.86301 -0.00002 0.00001 -89.81937 0.00000 -0.00000 2.76501 0.00000 0.00001 -69.88884 0.01305 -0.00465 8.68899 -0.12600 -2.08700 -79.83326 -0.00000 0.00000 4.53798 -0.00002 0.00001 -89.81937 0.00000 -0.00000 2.30500 0.00000 -0.00001 -69.88884 0.01305 -0.00465 8.39098 -0.81701 -3.75800 -79.83326 -0.00000 0.00000 3.04401 -0.00002 0.00001 -89.81937 0.00000 -0.00000 1.97502 0.00000 0.00000 -69.88884 0.01305 -0.00465 -1.58509 -0.53891 -0.44656 17.65204 -4.49433 -13.85255 -15.57143 0.00763 -0.15206 94.29047 -9.85704 -30.85689 -25.69368 -0.06314 0.01746 -19.27444 -24.96668 76.31411 -24.50809 0.01939 -0.00717 24.71348 9.11771 -25.53901 -4.87701 -1.04401 3.60799 24.66570 4.20854 9.07947 -2.66500 0.00002 0.00000 -0.00000 0.00000 -10.00000 -2.54300 -0.00001 0.00000 0.00000 0.00000 -15.00000 -9.23201 -0.30102 2.14398 20.00000 -0.00001 -0.00000 -4.22500 -0.00001 -0.00005 25.00000 0.00000 0.00000 -2.65402 0.00000 0.00000 29.90550 2.49762 4.33287 -8.92001 0.00000 -0.00002 20.00000 -0.00001 -0.00000 -4.86300 -0.00004 0.00000 25.00000 0.00000 0.00000 -2.76499 0.00002 0.00000 29.90550 2.49762 4.33287 -8.68901 -0.12600 -2.08704 20.00000 -0.00001 -0.00000 -4.53801 -0.00002 0.00000 25.00000 0.00000 0.00000 -2.30500 -0.00001 0.00002 29.90550 2.49762 4.33287 -8.39100 -0.81702 -3.75800 20.00000 -0.00001 -0.00000 -3.04401 0.00000 -0.00002 25.00000 0.00000 0.00000 -1.97501 -0.00001 0.00000 29.90550 2.49762 4.33287 0.00007 0.75390 0.00000 -0.00001 -0.00001 0.00001 0.01050 6.78646 -0.04237 28.62666 34.96442 4.82616 
